<svg xmlns="http://www.w3.org/2000/svg" width="512" height="512" viewBox="0 0 512 512" role="img" aria-label="flappy"><defs><linearGradient id="bg" x2=".85" y2="1"><stop stop-color="#9fe4e1"/><stop offset="1" stop-color="#59bbc5"/></linearGradient><linearGradient id="shine" x2="0" y2="1"><stop stop-color="#fff" stop-opacity=".42"/><stop offset="1" stop-color="#fff" stop-opacity="0"/></linearGradient><filter id="shadow" x="-30%" y="-30%" width="160%" height="160%"><feDropShadow dx="0" dy="13" stdDeviation="7" flood-color="#122939" flood-opacity=".28"/></filter></defs><rect x="8" y="8" width="496" height="496" rx="112" fill="#173347"/><rect x="16" y="14" width="480" height="480" rx="104" fill="url(#bg)"/><path d="M42 187V114Q42 40 116 40H385Q451 40 464 103" fill="none" stroke="#fff" stroke-opacity=".45" stroke-width="9" stroke-linecap="round"/><ellipse cx="256" cy="410" rx="152" ry="32" fill="#0d3047" opacity=".17"/><g stroke="#173347" stroke-width="11" stroke-linecap="round" stroke-linejoin="round" filter="url(#shadow)"><path d="M351 234h89v204h-89z" fill="#65b56b"/><path d="M337 228h114v48H337z" fill="#a0d989"/><path d="M366 290v127" fill="none" stroke="#a0d989" stroke-width="13"/><path d="M89 221q0-101 119-99 68-3 103 69 52 24 38 71-14 51-63 58-74 55-155 7-49-35-42-106z" fill="#f3c650"/><path d="M103 249q-48-26-45-70 70-6 111 59" fill="#e6a34a"/><ellipse cx="242" cy="209" rx="57" ry="64" fill="#fff3d8"/><ellipse cx="263" cy="205" rx="18" ry="29" fill="#173347" stroke="none"/><circle cx="269" cy="195" r="7" fill="#fff" stroke="none"/><path d="M281 243h59q33 15 9 36h-67z" fill="#f58d54"/><path d="M282 258h66" stroke="#ad5543" stroke-width="7"/><path d="M124 156q26-24 69-16" fill="none" stroke="#ffed99" stroke-width="14"/><path d="M131 384h64m-78 31h94" stroke="#ecffff" stroke-width="9" opacity=".8"/></g><path d="M57 427Q74 469 123 470H389" fill="none" stroke="#143248" stroke-opacity=".18" stroke-width="7" stroke-linecap="round"/></svg>
